<svg xmlns="http://www.w3.org/2000/svg" viewBox="0 0 256 256" role="img" aria-labelledby="title desc">
  <title id="title">Emojiwood World</title>
  <desc id="desc">Icona del progetto Emojiwood World con il personaggio principale del gioco al centro.</desc>
  <defs>
    <linearGradient id="bg" x1="0" x2="1" y1="0" y2="1">
      <stop offset="0" stop-color="#103b2a"/>
      <stop offset="1" stop-color="#081c15"/>
    </linearGradient>
    <linearGradient id="glow" x1="0" x2="1" y1="0" y2="1">
      <stop offset="0" stop-color="#f8d46f"/>
      <stop offset="1" stop-color="#d88d2b"/>
    </linearGradient>
    <radialGradient id="mist" cx="50%" cy="42%" r="60%">
      <stop offset="0" stop-color="#4dc7ef" stop-opacity=".32"/>
      <stop offset="1" stop-color="#4dc7ef" stop-opacity="0"/>
    </radialGradient>
  </defs>

  <rect width="256" height="256" rx="56" fill="url(#bg)"/>
  <rect x="16" y="16" width="224" height="224" rx="42" fill="url(#mist)"/>

  <circle cx="67" cy="76" r="28" fill="#1a4f38" opacity=".85"/>
  <circle cx="189" cy="72" r="20" fill="#ffd25a"/>
  <path d="M188 49l5 10 11 2-8 7 2 11-10-6-9 6 2-11-8-7 11-2z" fill="#fff1bb"/>
  <ellipse cx="126" cy="192" rx="62" ry="18" fill="#03110d" opacity=".34"/>

  <rect x="55" y="48" width="146" height="146" rx="38" fill="#f7f1df" opacity=".14" stroke="#f3d98e" stroke-opacity=".48" stroke-width="2"/>
  <circle cx="128" cy="118" r="58" fill="#0f2c22" opacity=".52"/>
  <circle cx="128" cy="118" r="46" fill="#123827" opacity=".82"/>
  <circle cx="128" cy="118" r="44" fill="none" stroke="url(#glow)" stroke-opacity=".72" stroke-width="5"/>

  <text x="128" y="141" text-anchor="middle" font-size="76" font-family="Apple Color Emoji, Segoe UI Emoji, Noto Color Emoji, sans-serif">🧝</text>

  <circle cx="78" cy="176" r="7" fill="#ffe3a1"/>
  <circle cx="96" cy="196" r="5.5" fill="#fff3cb"/>
  <circle cx="183" cy="181" r="7" fill="#f3d26f"/>
  <circle cx="166" cy="197" r="5.5" fill="#fff5d9"/>
</svg>
