<svg xmlns="http://www.w3.org/2000/svg" viewBox="0 0 128 128" role="img" aria-labelledby="title desc">
  <title id="title">Icona Alcol Monitor</title>
  <desc id="desc">Calendario con bicchiere e segno di monitoraggio.</desc>
  <defs>
    <linearGradient id="bg" x1="0%" y1="0%" x2="100%" y2="100%">
      <stop offset="0%" stop-color="#f7fbff"/>
      <stop offset="100%" stop-color="#e2edf6"/>
    </linearGradient>
    <linearGradient id="drink" x1="0%" y1="0%" x2="0%" y2="100%">
      <stop offset="0%" stop-color="#d97706"/>
      <stop offset="100%" stop-color="#b45309"/>
    </linearGradient>
  </defs>
  <rect x="8" y="8" width="112" height="112" rx="26" fill="url(#bg)"/>
  <rect x="20" y="20" width="88" height="88" rx="18" fill="#ffffff" stroke="#b7c9d8" stroke-width="4"/>
  <rect x="20" y="20" width="88" height="20" rx="18" fill="#2e6f95"/>
  <circle cx="38" cy="30" r="4" fill="#ffffff"/>
  <circle cx="54" cy="30" r="4" fill="#ffffff"/>
  <circle cx="70" cy="30" r="4" fill="#ffffff"/>
  <path d="M42 54h22l-2.5 29.5c-.3 3.6-3.3 6.5-7 6.5h-3c-3.7 0-6.7-2.9-7-6.5z" fill="url(#drink)" stroke="#8a3d06" stroke-width="3" stroke-linejoin="round"/>
  <path d="M64 58h12c7.2 0 13 5.8 13 13s-5.8 13-13 13H63.5" fill="none" stroke="#8a3d06" stroke-width="3.5" stroke-linecap="round"/>
  <path d="M80 46l8 8 18-18" fill="none" stroke="#2a9d8f" stroke-width="6" stroke-linecap="round" stroke-linejoin="round"/>
  <path d="M30 96h68" stroke="#d8e3ec" stroke-width="4" stroke-linecap="round"/>
</svg>
