<svg xmlns="http://www.w3.org/2000/svg" viewBox="0 0 192 192" role="img" aria-labelledby="title desc">
  <title>ChatAnalysis icon</title>
  <desc>Icona con fumetto, grafico e lente per analisi chat.</desc>
  <defs>
    <linearGradient id="bg" x1="0" x2="1" y1="0" y2="1">
      <stop offset="0%" stop-color="#0f766e"/>
      <stop offset="100%" stop-color="#164e63"/>
    </linearGradient>
    <linearGradient id="accent" x1="0" x2="1" y1="0" y2="1">
      <stop offset="0%" stop-color="#7dd3fc"/>
      <stop offset="100%" stop-color="#fde68a"/>
    </linearGradient>
  </defs>
  <rect width="192" height="192" rx="42" fill="url(#bg)"/>
  <path d="M45 52c0-9.94 8.06-18 18-18h66c9.94 0 18 8.06 18 18v40c0 9.94-8.06 18-18 18H93l-23 18v-18H63c-9.94 0-18-8.06-18-18V52z" fill="#f8fafc" opacity="0.96"/>
  <rect x="67" y="63" width="12" height="29" rx="6" fill="url(#accent)"/>
  <rect x="90" y="52" width="12" height="40" rx="6" fill="#38bdf8"/>
  <rect x="113" y="70" width="12" height="22" rx="6" fill="#f59e0b"/>
  <circle cx="129" cy="129" r="25" fill="none" stroke="#fde68a" stroke-width="10"/>
  <path d="M145 145l18 18" stroke="#fde68a" stroke-width="10" stroke-linecap="round"/>
</svg>
