<svg width="140" height="56" fill="none" xmlns="http://www.w3.org/2000/svg"><path d="M28.787 31.1c2.17 0 3.6-1.57 3.6-3.66v-.08c0-2.1-1.47-3.61-3.6-3.61-2.12 0-3.62 1.55-3.62 3.64v.08c0 2.06 1.43 3.63 3.62 3.63zm.02-1.07c-1.3 0-2.25-1.01-2.25-2.57v-.08c0-1.54.83-2.57 2.23-2.57s2.22 1.09 2.22 2.56v.08c0 1.55-.85 2.58-2.2 2.58zM36.192 30.14c-.88 0-1.45-.55-1.45-1.72v-.08c0-1.16.6-1.73 1.44-1.73.79 0 1.39.57 1.39 1.73v.08c0 1.12-.49 1.72-1.38 1.72zm-2.62 2.65h1.21v-2.61c.28.51.88.92 1.71.92 1.35 0 2.32-1.02 2.32-2.7v-.08c0-1.69-1.01-2.66-2.32-2.66-.77 0-1.42.45-1.71.95v-.84h-1.21v7.02zM42.2 31.1c1.34 0 2.23-.6 2.4-1.7h-1.17c-.09.51-.47.8-1.2.8-.9 0-1.4-.56-1.44-1.55h3.83v-.35c0-1.87-1.17-2.64-2.47-2.64-1.49 0-2.6 1.08-2.6 2.7v.08c0 1.65 1.11 2.66 2.65 2.66zm-1.39-3.26c.12-.81.61-1.3 1.34-1.3.75 0 1.21.4 1.27 1.3h-2.61zM45.7 31h1.21v-3.08c0-.83.55-1.25 1.23-1.25.72 0 1.04.36 1.04 1.15V31h1.21v-3.29c0-1.44-.74-2.05-1.79-2.05-.86 0-1.44.43-1.69.94v-.83H45.7V31zM54.787 24.91c.4 0 .72-.3.72-.69 0-.4-.32-.7-.72-.7-.4 0-.72.3-.72.7 0 .39.32.69.72.69zm-.59 6.09h1.21v-5.23h-1.21V31zM56.882 31h1.21v-3.08c0-.83.55-1.25 1.23-1.25.72 0 1.04.36 1.04 1.15V31h1.21v-3.29c0-1.44-.74-2.05-1.79-2.05-.86 0-1.44.43-1.69.94v-.83h-1.21V31zM66.779 27.16v-2.28h1.07c.85 0 1.36.28 1.36 1.1v.04c0 .76-.47 1.14-1.36 1.14h-1.07zM65.449 31h1.33v-2.89h.85l1.87 2.89h1.44l-2.01-3.09c.89-.23 1.59-.8 1.59-1.92v-.04c0-1.46-1.1-2.1-2.67-2.1h-2.4V31zM74.006 31.1c1.34 0 2.23-.6 2.4-1.7h-1.17c-.09.51-.47.8-1.2.8-.9 0-1.4-.56-1.44-1.55h3.83v-.35c0-1.87-1.17-2.64-2.47-2.64-1.49 0-2.6 1.08-2.6 2.7v.08c0 1.65 1.11 2.66 2.65 2.66zm-1.39-3.26c.12-.81.61-1.3 1.34-1.3.75 0 1.21.4 1.27 1.3h-2.61zM79.216 30.23c-.6 0-.84-.29-.84-.73 0-.64.59-.85 1.51-.85h.62v.52c0 .67-.55 1.06-1.29 1.06zm-.29.87c.8 0 1.26-.29 1.6-.74V31h1.19v-3.43c0-1.43-.92-1.91-2.09-1.91s-2.14.51-2.24 1.73h1.17c.06-.52.37-.82 1-.82.71 0 .95.35.95 1.05v.27h-.65c-1.5 0-2.68.44-2.68 1.66 0 1.09.79 1.55 1.75 1.55zM85.363 30.14c-.78 0-1.36-.55-1.36-1.7v-.08c0-1.13.52-1.75 1.41-1.75.88 0 1.41.57 1.41 1.72v.08c0 1.17-.62 1.73-1.46 1.73zm-.3.96c.77 0 1.44-.46 1.72-.98V31h1.21v-7.65h-1.21v3.22c-.29-.52-.82-.91-1.67-.91-1.36 0-2.35 1.06-2.35 2.73v.08c0 1.7.99 2.63 2.3 2.63zM90.01 32.79h1.19l2.85-7.02h-1.18l-1.28 3.37-1.39-3.37h-1.31l2.07 4.7-.95 2.32zM94.958 31h1.21v-3.13c0-.8.55-1.2 1.15-1.2.59 0 .93.33.93 1.1V31h1.21v-3.13c0-.8.55-1.2 1.15-1.2.6 0 .93.33.93 1.1V31h1.21v-3.31c0-1.44-.78-2.03-1.74-2.03-.65 0-1.37.29-1.77.94-.26-.65-.8-.94-1.48-.94-.77 0-1.34.42-1.59.91v-.8h-1.21V31zM105.798 30.23c-.6 0-.84-.29-.84-.73 0-.64.59-.85 1.51-.85h.62v.52c0 .67-.55 1.06-1.29 1.06zm-.29.87c.8 0 1.26-.29 1.6-.74V31h1.19v-3.43c0-1.43-.92-1.91-2.09-1.91s-2.14.51-2.24 1.73h1.17c.06-.52.37-.82 1-.82.71 0 .95.35.95 1.05v.27h-.65c-1.5 0-2.68.44-2.68 1.66 0 1.09.79 1.55 1.75 1.55zM111.955 29.86c-.78 0-1.38-.6-1.38-1.57v-.08c0-.95.52-1.6 1.42-1.6.87 0 1.41.59 1.41 1.58v.07c0 1-.61 1.6-1.45 1.6zm-.04 3.06c1.62 0 2.65-.77 2.66-2.31v-4.84h-1.21v.8c-.3-.52-.82-.91-1.68-.91-1.35 0-2.35 1.1-2.35 2.57v.07c0 1.51 1.01 2.49 2.32 2.49.77 0 1.42-.47 1.71-.97v.77c0 .94-.52 1.41-1.46 1.41-.79 0-1.19-.3-1.29-.82h-1.22c.14 1 .88 1.74 2.52 1.74z" fill="#fff"/></svg>