<svg xmlns="http://www.w3.org/2000/svg" viewBox="0 0 192 192" role="img" aria-labelledby="title desc">
  <title id="title">Via Italia Simulator icon</title>
  <desc id="desc">Icona con strada e segnaposto mappa</desc>
  <defs>
    <linearGradient id="bg" x1="24" y1="20" x2="168" y2="172" gradientUnits="userSpaceOnUse">
      <stop stop-color="#f6efe2"/>
      <stop offset="1" stop-color="#ddcfb7"/>
    </linearGradient>
  </defs>
  <rect width="192" height="192" rx="42" fill="url(#bg)"/>
  <path d="M48 142c18-31 34-48 56-72c17-19 30-36 47-60" fill="none" stroke="#1f2933" stroke-linecap="round" stroke-width="18"/>
  <path d="M70 118c9-11 20-23 31-35" fill="none" stroke="#fff8ef" stroke-dasharray="1 12" stroke-linecap="round" stroke-width="5"/>
  <path d="M106 76c0-12.703 10.297-23 23-23s23 10.297 23 23c0 20.333-23 46-23 46s-23-25.667-23-46Z" fill="#9d4e2e"/>
  <circle cx="129" cy="76" r="8" fill="#fff8ef"/>
  <rect x="34" y="128" width="58" height="14" rx="7" fill="#9d4e2e" opacity=".92"/>
  <rect x="98" y="128" width="60" height="14" rx="7" fill="#1f2933" opacity=".92"/>
</svg>
