<?xml version="1.0" encoding="UTF-8"?>
<svg width="276px" height="95px" viewBox="0 0 276 95" version="1.1" xmlns="http://www.w3.org/2000/svg" xmlns:xlink="http://www.w3.org/1999/xlink">
    <!-- Generator: Sketch 55.2 (78181) - https://sketchapp.com -->
    <title>PUSHTHELIMITS@1x</title>
    <desc>Created with Sketch.</desc>
    <g id="Page-1" stroke="none" stroke-width="1" fill="none" fill-rule="evenodd">
        <path d="M74.75,37 L74.75,1.25 L84.9,1.25 C91.75,1.25 97.4,4.25 97.4,11.7 L97.4,11.9 C97.4,19.5 91.7,22.45 84.9,22.45 L79.1,22.45 L79.1,37 L74.75,37 Z M79.1,19 L85.2,19 C90.3,19 93.05,16.5 93.05,11.9 L93.05,11.7 C93.05,6.65 90.05,4.75 85.2,4.75 L79.1,4.75 L79.1,19 Z M118.3,37.45 C110.1,37.45 105.45,32.65 105.45,23.95 L105.45,1.25 L109.8,1.25 L109.8,23.45 C109.8,30.95 112.45,33.85 118.4,33.85 C124.1,33.85 127.5,31.55 127.5,22.8 L127.5,1.25 L131.85,1.25 L131.85,23.4 C131.85,32.1 127.5,37.45 118.3,37.45 Z M154.05,37.45 C144.5,37.45 141.05,32.2 140.4,26.1 L144.6,26.1 C145.15,30.35 146.85,33.95 154.05,33.95 C158.65,33.95 162.2,31.25 162.2,27.2 C162.2,23.15 160.35,21.45 153.55,20.35 C146.05,19.2 141.6,16.85 141.6,10.5 C141.6,5 146.35,0.8 153.1,0.8 C160.25,0.8 164.7,4.3 165.4,10.65 L161.5,10.65 C160.65,6.15 158.05,4.3 153.1,4.3 C148.2,4.3 145.65,6.75 145.65,10.1 C145.65,13.6 146.95,15.4 154.25,16.5 C162.2,17.75 166.4,20.15 166.4,26.9 C166.4,32.9 161.15,37.45 154.05,37.45 Z M175.8,37 L175.8,1.25 L180.15,1.25 L180.15,17.45 L198.95,17.45 L198.95,1.25 L203.3,1.25 L203.3,37 L198.95,37 L198.95,21.1 L180.15,21.1 L180.15,37 L175.8,37 Z M11.1,94 L11.1,61.8 L0.7,61.8 L0.7,58.25 L25.85,58.25 L25.85,61.8 L15.45,61.8 L15.45,94 L11.1,94 Z M33.75,94 L33.75,58.25 L38.1,58.25 L38.1,74.45 L56.9,74.45 L56.9,58.25 L61.25,58.25 L61.25,94 L56.9,94 L56.9,78.1 L38.1,78.1 L38.1,94 L33.75,94 Z M72.2,94 L72.2,58.25 L93.05,58.25 L93.05,61.8 L76.55,61.8 L76.55,73.95 L89.85,73.95 L89.85,77.5 L76.55,77.5 L76.55,90.45 L93.95,90.45 L93.95,94 L72.2,94 Z M117.65,94 L117.65,58.25 L122,58.25 L122,90.45 L138.35,90.45 L138.35,94 L117.65,94 Z M146.6,94 L146.6,58.25 L150.95,58.25 L150.95,94 L146.6,94 Z M162.15,94 L162.15,58.25 L168.2,58.25 L179.25,86.1 L189.95,58.25 L195.95,58.25 L195.95,94 L191.6,94 L191.6,63.9 L179.75,94 L178.4,94 L166.15,63.9 L166.15,94 L162.15,94 Z M207.15,94 L207.15,58.25 L211.5,58.25 L211.5,94 L207.15,94 Z M230.05,94 L230.05,61.8 L219.65,61.8 L219.65,58.25 L244.8,58.25 L244.8,61.8 L234.4,61.8 L234.4,94 L230.05,94 Z M263.5,94.45 C253.95,94.45 250.5,89.2 249.85,83.1 L254.05,83.1 C254.6,87.35 256.3,90.95 263.5,90.95 C268.1,90.95 271.65,88.25 271.65,84.2 C271.65,80.15 269.8,78.45 263,77.35 C255.5,76.2 251.05,73.85 251.05,67.5 C251.05,62 255.8,57.8 262.55,57.8 C269.7,57.8 274.15,61.3 274.85,67.65 L270.95,67.65 C270.1,63.15 267.5,61.3 262.55,61.3 C257.65,61.3 255.1,63.75 255.1,67.1 C255.1,70.6 256.4,72.4 263.7,73.5 C271.65,74.75 275.85,77.15 275.85,83.9 C275.85,89.9 270.6,94.45 263.5,94.45 Z" id="PUSHTHELIMITS" fill="#0080FF" fill-rule="nonzero"></path>
    </g>
</svg>