<svg width="112" height="56" fill="none" xmlns="http://www.w3.org/2000/svg"><path fill-rule="evenodd" clip-rule="evenodd" d="M29.006 33.702c.265-.87.965-1.54 2.184-1.54 1.049 0 1.918.67 2.013 1.54h-4.197zm2.184-3.033c-2.269 0-4.017 1.663-4.017 4.082 0 2.41 1.834 4.083 4.017 4.083 1.663 0 2.882-.841 3.582-2.004l-1.465-.661c-.265.662-.983 1.163-2.032 1.163-1.484 0-2.354-1.002-2.354-2.165h5.935l.17-.5c0-2.42-1.738-3.998-3.836-3.998zM91.514 34.336H88.48v1.398h1.437c-.085 1.03-1.021 1.607-2.06 1.607-1.73 0-2.477-1.267-2.477-2.552 0-1.295.756-2.618 2.505-2.618.983 0 1.72.51 2.088 1.21l1.427-.709c-.709-1.295-1.918-2.003-3.515-2.013-2.457.01-4.215 1.767-4.215 4.13 0 2.467 1.918 4.045 4.054 4.045 2.145 0 3.96-1.578 3.96-3.998l-.17-.5zM24.168 31.746l-.095-.076-.17-.84h-1.569v7.834h1.74v-4.565c.037-.964.699-1.767 2.04-1.767h.927v-1.503c-.35-.16-.52-.16-.87-.16-.718 0-1.389.311-2.003 1.077zM57.644 36.23l-2.071-5.4h-1.806l3.022 7.59L55.393 42h1.644l4.357-11.17H59.75l-2.106 5.4zM51.5 31.5V26h1.738v12.664H51.67l-.17-.671-.085-.076-.094.076c-.52.501-1.39.841-2.269.841-2.268 0-4.186-1.673-4.186-4.083 0-2.42 1.918-4.082 4.186-4.082.86 0 1.749.33 2.269.831l.094.085.085-.085zm-2.354 5.831c1.484 0 2.523-1.162 2.523-2.58 0-1.417-1.04-2.59-2.523-2.59-1.663 0-2.552 1.173-2.552 2.59 0 1.418.889 2.58 2.552 2.58zM39.837 37.331c-1.654 0-2.552-1.162-2.552-2.58 0-1.417.898-2.59 2.552-2.59 1.484 0 2.533 1.173 2.533 2.59 0 1.418-1.05 2.58-2.533 2.58zm2.353-5.83l-.085.084-.085-.085c-.53-.5-1.399-.831-2.268-.831-2.268 0-4.187 1.663-4.187 4.082 0 2.41 1.919 4.083 4.187 4.083.87 0 1.739-.34 2.268-.841l.085-.076.085.076.18.671h1.569v-7.835h-1.57l-.179.671zM70.845 30.669c-.69 0-1.569.33-2.004.831l-.434.501c-.454-.822-1.361-1.332-2.618-1.332-.7 0-1.569.33-1.919.831l-.085.085-.094-.085-.17-.67h-1.57v7.834h1.74v-4.735c.037-.964.898-1.767 1.918-1.767.88 0 1.399.5 1.399 1.502v5h1.748v-4.735c.038-.964.889-1.767 1.919-1.767.87 0 1.398.5 1.398 1.502v5h1.74v-5.17c0-1.663-1.04-2.825-2.968-2.825zM78.84 37.331c-1.654 0-2.542-1.162-2.542-2.58 0-1.417.888-2.59 2.542-2.59 1.484 0 2.533 1.173 2.533 2.59 0 1.418-1.049 2.58-2.533 2.58zm2.363-5.83l-.085.084-.094-.085c-.52-.5-1.39-.831-2.269-.831-2.268 0-4.186 1.663-4.186 4.082 0 2.41 1.918 4.083 4.186 4.083.88 0 1.749-.34 2.269-.841l.094-.076.085.076.17.671h1.569v-7.835h-1.569l-.17.671z" fill="#fff"/><path d="M33.675 22h1.2v-5.4l2.17 5.4h.43l2.13-5.4V22h1.33v-7.15h-1.76l-1.84 4.88-1.88-4.88h-1.78V22zM44.132 21.23c-.6 0-.84-.29-.84-.73 0-.64.59-.85 1.51-.85h.62v.52c0 .67-.55 1.06-1.29 1.06zm-.29.87c.8 0 1.26-.29 1.6-.74V22h1.19v-3.43c0-1.43-.92-1.91-2.09-1.91s-2.14.51-2.24 1.73h1.17c.06-.52.37-.82 1-.82.71 0 .95.35.95 1.05v.27h-.65c-1.5 0-2.68.44-2.68 1.66 0 1.09.79 1.55 1.75 1.55zM50.178 21.14c-.78 0-1.36-.55-1.36-1.7v-.08c0-1.13.52-1.75 1.41-1.75.88 0 1.41.57 1.41 1.72v.08c0 1.17-.62 1.73-1.46 1.73zm-.3.96c.77 0 1.44-.46 1.72-.98V22h1.21v-7.65h-1.21v3.22c-.29-.52-.82-.91-1.67-.91-1.36 0-2.35 1.06-2.35 2.73v.08c0 1.7.99 2.63 2.3 2.63zM56.346 22.1c1.34 0 2.23-.6 2.4-1.7h-1.17c-.09.51-.47.8-1.2.8-.9 0-1.4-.56-1.44-1.55h3.83v-.35c0-1.87-1.17-2.64-2.47-2.64-1.49 0-2.6 1.08-2.6 2.7v.08c0 1.65 1.11 2.66 2.65 2.66zm-1.39-3.26c.12-.81.61-1.3 1.34-1.3.75 0 1.21.4 1.27 1.3h-2.61zM62.91 22h1.24l1.06-3.52.97 3.52h1.23l1.64-5.23h-1.18l-1.09 3.78-1.02-3.78h-1.01l-1.11 3.78-1.04-3.78h-1.29l1.6 5.23zM70.395 15.91c.4 0 .72-.3.72-.69 0-.4-.32-.7-.72-.7-.4 0-.72.3-.72.7 0 .39.32.69.72.69zm-.59 6.09h1.21v-5.23h-1.21V22zM74.07 22.09c.37 0 .63-.06.82-.13V21c-.17.07-.35.1-.59.1-.38 0-.6-.21-.6-.67v-2.75h1.15v-.91H73.7v-1.15h-1.21v1.15h-.7v.91h.7v2.86c0 .99.54 1.55 1.58 1.55zM75.78 22h1.21v-3.08c0-.83.55-1.25 1.23-1.25.72 0 1.04.36 1.04 1.15V22h1.21v-3.29c0-1.44-.74-2.05-1.79-2.05-.86 0-1.44.43-1.69.94v-3.25h-1.21V22z" fill="#fff"/></svg>