<svg xmlns="http://www.w3.org/2000/svg" viewBox="0 0 512 512" role="img" aria-labelledby="title">
  <title id="title">Tongatron icon</title>
  <rect width="512" height="512" rx="104" fill="#ffffff"/>
  <circle cx="256" cy="232" r="164" fill="#000000" opacity="0.08"/>
  <path fill="#000000" d="M271.36 348.832C358.752 327.264 416 250.784 416 160c0-107.872-86.128-192-192-192S32 52.128 32 160c0 90.784 57.248 167.264 144.64 188.832l-7.808 15.584a8 8 0 1 0 14.336 7.168l1.28-2.56c.288 5.44.768 10.08 1.632 14.4 2.176 11.008 6.656 19.904 14.336 35.264l.416.896c6.784 13.504 5.824 27.2 1.6 39.872-4.32 12.864-11.712 24.032-17.088 32.096a8 8 0 0 0 13.312 8.896l.128-.224c5.312-7.936 13.792-20.672 18.816-35.68 5.12-15.328 6.784-33.632-2.432-52.128-8.256-16.48-11.68-23.424-13.408-32.128a64 64 0 0 1-1.184-9.248l.256.544a8 8 0 1 0 14.336-7.168zM139.264 107.392c20.256-39.328 57.184-66.688 100.8-74.4C248.768 31.904 256 39.168 256 48s-7.232 15.872-15.936 17.344c-30.4 5.184-55.968 24.96-69.536 51.744A19.2 19.2 0 0 1 153.888 128c-11.072 0-19.168-10.528-14.624-20.608Z" transform="translate(80 40) scale(.64)"/>
</svg>
