<svg xmlns="http://www.w3.org/2000/svg" viewBox="0 0 72 92" role="img" aria-labelledby="title">
  <title id="title">Tongatron balloon</title>
  <path fill="#FFFFFF" d="M36 4C21.64 4 10 15.64 10 30c0 9.889 5.534 18.49 13.672 22.885-.682 3.872-3.047 9.634-8.263 14.987a2 2 0 0 0 2.206 3.242c5.474-2.301 10.047-6.162 13.453-11.016.693.077 1.397.117 2.111.117 14.36 0 26-11.64 26-26S50.36 4 36 4Z"/>
  <path fill="#FFFFFF" d="M31.62 60.59c1.557 2.87 2.249 5.594 2.249 8.03 0 3.05-1.12 5.647-3.857 8.204-.959.896-.581 2.486.705 2.857 1.59.46 3.369.711 5.157.711 1.647 0 3.286-.214 4.79-.61 1.286-.339 1.723-1.923.8-2.872-2.628-2.705-3.696-5.363-3.696-8.29 0-2.458.72-5.13 2.339-7.894l-4.863-1.393-3.624 1.257Z"/>
  <path fill="#FFFFFF" d="M35.238 80.423c-2.576 0-4.935 2.332-4.935 5.082 0 1.405.626 2.711 1.703 3.639 1.073.924 2.54 1.481 4.132 1.481 1.591 0 3.059-.557 4.131-1.481 1.078-.928 1.703-2.234 1.703-3.639 0-2.75-2.359-5.082-4.934-5.082h-1.8Z"/>
</svg>
